<svg width="64" height="64" viewBox="0 0 64 64" fill="none" xmlns="http://www.w3.org/2000/svg">
<rect width="64" height="64" rx="12.8" fill="url(#paint0_linear_3193_761)"/>
<path d="M29.333 45.5583C28.9303 44.5112 28.5693 43.3162 28.264 41.9992H35.7422C35.4369 43.3162 35.076 44.5112 34.6733 45.5583C34.0321 47.2253 33.3471 48.3547 32.7496 49.0118C32.3273 49.4762 32.0756 49.577 32.0031 49.5966C31.9306 49.577 31.679 49.4762 31.2567 49.0118C30.6591 48.3547 29.9741 47.2253 29.333 45.5583ZM34.6733 18.4401C35.076 19.4872 35.4369 20.6822 35.7422 21.9992H28.264C28.5693 20.6822 28.9303 19.4872 29.333 18.4401C29.9741 16.7732 30.6591 15.6438 31.2567 14.9867C31.679 14.5222 31.9306 14.4215 32.0031 14.4018C32.0756 14.4215 32.3273 14.5222 32.7496 14.9867C33.3471 15.6438 34.0321 16.7732 34.6733 18.4401ZM17.5181 21.9992C19.6424 18.928 22.7183 16.5652 26.3195 15.3371C26.0651 15.8611 25.825 16.4183 25.5996 17.0042C25.0321 18.4796 24.5495 20.1613 24.1693 21.9992H17.5181ZM14.5155 29.9992C14.6726 28.6105 14.9913 27.2707 15.4523 25.9992H23.5357C23.3892 27.2878 23.2888 28.6254 23.2391 29.9992H14.5155ZM15.4523 37.9992C14.9913 36.7277 14.6726 35.3879 14.5155 33.9992H23.2391C23.2888 35.373 23.3892 36.7107 23.5357 37.9992H15.4523ZM24.1693 41.9992C24.5495 43.8371 25.0321 45.5188 25.5996 46.9942C25.825 47.5802 26.0651 48.1373 26.3195 48.6613C22.7183 47.4332 19.6424 45.0704 17.5181 41.9992L24.1693 41.9992ZM38.4067 46.9942C38.9741 45.5188 39.4567 43.8371 39.8369 41.9992L46.4882 41.9992C44.3639 45.0704 41.288 47.4332 37.6867 48.6613C37.9411 48.1373 38.1813 47.5802 38.4067 46.9942ZM37.6867 15.3371C41.288 16.5652 44.3639 18.928 46.4882 21.9992H39.8369C39.4567 20.1613 38.9741 18.4796 38.4067 17.0042C38.1813 16.4183 37.9411 15.8611 37.6867 15.3371ZM49.4907 33.9992C49.3337 35.3879 49.015 36.7277 48.5539 37.9992H40.4705C40.6171 36.7107 40.7175 35.373 40.7671 33.9992H49.4907ZM48.5539 25.9992C49.015 27.2707 49.3337 28.6105 49.4907 29.9992H40.7671C40.7175 28.6254 40.6171 27.2878 40.4705 25.9992H48.5539ZM27.5639 37.9992C27.4062 36.7289 27.2962 35.3906 27.2419 33.9992H36.7644C36.7101 35.3906 36.6001 36.7289 36.4424 37.9992L27.5639 37.9992ZM36.4424 25.9992C36.6001 27.2695 36.7101 28.6079 36.7644 29.9992H27.2419C27.2962 28.6079 27.4062 27.2695 27.5639 25.9992H36.4424ZM53.6031 31.9992C53.6031 20.0699 43.9325 10.3992 32.0031 10.3992C20.0738 10.3992 10.4031 20.0699 10.4031 31.9992C10.4031 43.9286 20.0738 53.5992 32.0031 53.5992C43.9325 53.5992 53.6031 43.9286 53.6031 31.9992Z" fill="white" stroke="url(#paint1_linear_3193_761)" stroke-width="1.6"/>
<g style="mix-blend-mode:overlay">
<rect x="1.6" y="1.6" width="60.8" height="60.8" rx="11.2" stroke="url(#paint2_linear_3193_761)" stroke-width="3.2"/>
</g>
<defs>
<linearGradient id="paint0_linear_3193_761" x1="32" y1="0" x2="32" y2="64" gradientUnits="userSpaceOnUse">
<stop/>
<stop offset="0.99" stop-color="#0C3524"/>
</linearGradient>
<linearGradient id="paint1_linear_3193_761" x1="32.0031" y1="52.7992" x2="32.0031" y2="-45.6008" gradientUnits="userSpaceOnUse">
<stop stop-color="#06452B"/>
<stop offset="1" stop-color="#0EAB69"/>
</linearGradient>
<linearGradient id="paint2_linear_3193_761" x1="32" y1="0" x2="32" y2="64" gradientUnits="userSpaceOnUse">
<stop stop-color="white"/>
<stop offset="1" stop-color="#999999" stop-opacity="0"/>
</linearGradient>
</defs>
</svg>
