<svg width="64" height="64" viewBox="0 0 64 64" fill="none" xmlns="http://www.w3.org/2000/svg">
<rect width="64" height="64" rx="14" fill="url(#paint0_linear_3193_767)"/>
<g style="mix-blend-mode:overlay">
<rect x="1.5" y="1.5" width="61" height="61" rx="12.5" stroke="url(#paint1_linear_3193_767)" stroke-width="3"/>
</g>
<g filter="url(#filter0_d_3193_767)">
<path d="M15.9289 25.2728C16.2896 22.8186 18.3951 21 20.8757 21H46.2113C49.2622 21 51.6018 23.7087 51.1581 26.7272L48.0711 47.7272C47.7104 50.1814 45.6049 52 43.1243 52H17.7887C14.7378 52 12.3982 49.2913 12.8419 46.2728L15.9289 25.2728Z" fill="url(#paint2_linear_3193_767)"/>
</g>
<g filter="url(#filter1_d_3193_767)">
<path d="M30.6601 14.5H37.5557C42.3877 14.5 45.5304 19.585 43.3695 23.9069L42.8695 24.9069C41.7685 27.109 39.5177 28.5 37.0557 28.5H30.3072C25.8225 28.5 22.6851 24.0657 24.1777 19.8367L24.5307 18.8367C25.4479 16.2379 27.9042 14.5 30.6601 14.5Z" stroke="white" stroke-width="3" shape-rendering="crispEdges"/>
</g>
<defs>
<filter id="filter0_d_3193_767" x="12.7871" y="21" width="38.4258" height="33" filterUnits="userSpaceOnUse" color-interpolation-filters="sRGB">
<feFlood flood-opacity="0" result="BackgroundImageFix"/>
<feColorMatrix in="SourceAlpha" type="matrix" values="0 0 0 0 0 0 0 0 0 0 0 0 0 0 0 0 0 0 127 0" result="hardAlpha"/>
<feOffset dy="2"/>
<feComposite in2="hardAlpha" operator="out"/>
<feColorMatrix type="matrix" values="0 0 0 0 1 0 0 0 0 1 0 0 0 0 1 0 0 0 0.25 0"/>
<feBlend mode="normal" in2="BackgroundImageFix" result="effect1_dropShadow_3193_767"/>
<feBlend mode="normal" in="SourceGraphic" in2="effect1_dropShadow_3193_767" result="shape"/>
</filter>
<filter id="filter1_d_3193_767" x="22.3008" y="13" width="23.2656" height="19" filterUnits="userSpaceOnUse" color-interpolation-filters="sRGB">
<feFlood flood-opacity="0" result="BackgroundImageFix"/>
<feColorMatrix in="SourceAlpha" type="matrix" values="0 0 0 0 0 0 0 0 0 0 0 0 0 0 0 0 0 0 127 0" result="hardAlpha"/>
<feOffset dy="2"/>
<feComposite in2="hardAlpha" operator="out"/>
<feColorMatrix type="matrix" values="0 0 0 0 1 0 0 0 0 1 0 0 0 0 1 0 0 0 0.25 0"/>
<feBlend mode="normal" in2="BackgroundImageFix" result="effect1_dropShadow_3193_767"/>
<feBlend mode="normal" in="SourceGraphic" in2="effect1_dropShadow_3193_767" result="shape"/>
</filter>
<linearGradient id="paint0_linear_3193_767" x1="32" y1="64" x2="32" y2="0" gradientUnits="userSpaceOnUse">
<stop stop-color="#FF55B1"/>
<stop offset="0.99" stop-color="#9F054F"/>
</linearGradient>
<linearGradient id="paint1_linear_3193_767" x1="32" y1="0" x2="32" y2="64" gradientUnits="userSpaceOnUse">
<stop stop-color="white"/>
<stop offset="1" stop-color="#999999" stop-opacity="0"/>
</linearGradient>
<linearGradient id="paint2_linear_3193_767" x1="32" y1="31" x2="31" y2="72.5" gradientUnits="userSpaceOnUse">
<stop stop-color="white"/>
<stop offset="1" stop-color="#FD54AF"/>
</linearGradient>
</defs>
</svg>
