<svg width="64" height="64" viewBox="0 0 64 64" fill="none" xmlns="http://www.w3.org/2000/svg">
<rect width="64" height="64" rx="14" fill="url(#paint0_linear_3193_733)"/>
<g style="mix-blend-mode:overlay">
<rect x="1.5" y="1.5" width="61" height="61" rx="12.5" stroke="url(#paint1_linear_3193_733)" stroke-width="3"/>
</g>
<g filter="url(#filter0_d_3193_733)">
<ellipse cx="43.2437" cy="27" rx="10.7554" ry="11" fill="#FFE143"/>
</g>
<g filter="url(#filter1_d_3193_733)">
<path d="M10 40.5C10 36.3579 13.3579 33 17.5 33H44.5437C48.6859 33 52.0437 36.3579 52.0437 40.5V40.5C52.0437 44.6421 48.6859 48 44.5437 48H17.5C13.3579 48 10 44.6421 10 40.5V40.5Z" fill="white"/>
</g>
<ellipse cx="26.6222" cy="33" rx="13.6887" ry="14" fill="white"/>
<ellipse cx="40.7997" cy="37.5" rx="10.2665" ry="10.5" fill="white"/>
<defs>
<filter id="filter0_d_3193_733" x="32.4883" y="16" width="21.5117" height="24" filterUnits="userSpaceOnUse" color-interpolation-filters="sRGB">
<feFlood flood-opacity="0" result="BackgroundImageFix"/>
<feColorMatrix in="SourceAlpha" type="matrix" values="0 0 0 0 0 0 0 0 0 0 0 0 0 0 0 0 0 0 127 0" result="hardAlpha"/>
<feOffset dy="2"/>
<feComposite in2="hardAlpha" operator="out"/>
<feColorMatrix type="matrix" values="0 0 0 0 0.520833 0 0 0 0 0.03125 0 0 0 0 0 0 0 0 0.25 0"/>
<feBlend mode="normal" in2="BackgroundImageFix" result="effect1_dropShadow_3193_733"/>
<feBlend mode="normal" in="SourceGraphic" in2="effect1_dropShadow_3193_733" result="shape"/>
</filter>
<filter id="filter1_d_3193_733" x="10" y="33" width="42.043" height="17" filterUnits="userSpaceOnUse" color-interpolation-filters="sRGB">
<feFlood flood-opacity="0" result="BackgroundImageFix"/>
<feColorMatrix in="SourceAlpha" type="matrix" values="0 0 0 0 0 0 0 0 0 0 0 0 0 0 0 0 0 0 127 0" result="hardAlpha"/>
<feOffset dy="2"/>
<feComposite in2="hardAlpha" operator="out"/>
<feColorMatrix type="matrix" values="0 0 0 0 0.520833 0 0 0 0 0.03125 0 0 0 0 0 0 0 0 0.25 0"/>
<feBlend mode="normal" in2="BackgroundImageFix" result="effect1_dropShadow_3193_733"/>
<feBlend mode="normal" in="SourceGraphic" in2="effect1_dropShadow_3193_733" result="shape"/>
</filter>
<linearGradient id="paint0_linear_3193_733" x1="32" y1="0" x2="32" y2="64" gradientUnits="userSpaceOnUse">
<stop stop-color="#40BAFF"/>
<stop offset="0.99" stop-color="#EAA724"/>
</linearGradient>
<linearGradient id="paint1_linear_3193_733" x1="32" y1="0" x2="32" y2="64" gradientUnits="userSpaceOnUse">
<stop stop-color="white"/>
<stop offset="1" stop-color="#999999" stop-opacity="0"/>
</linearGradient>
</defs>
</svg>
